<svg xmlns="http://www.w3.org/2000/svg" width="81" height="40" fill="none" viewBox="0 0 81 40"><path fill="#000" d="m51 1.8.1.5zm-.3 0 .1.6zm-.7 0-.2.5zm-.6-.3.2-.4zM48 1.4v.5zm-.5.4-.4-.2zm-.2.5.4.2zm-.2.4.4.2zm-1.5-.5.3-.4zm-.8.5.5.2zm-.6 1-.4-.4zm-.4.5-.4-.4zm-.8 0 .3-.5zm-1-.6-.2.5zm-.8-.1L41 3zm-.7.2.2.5zM40 4l-.4-.2zm-.3.7-.5-.2zm-.5.4.2.5zm-.6.3-.2-.4zM38 6l.3.4zm-.3.2-.3-.4zm-.3.2-.3-.4zm0 .7h.4zm.2 1.1-.5.2zm0 .9.6.1zm0 .6H37zm-.8.3v-.5zm-1.3 0v.4zm-.8.2-.4-.3zm-.2.3.4.2zm-.2.2-.4-.2zm-.3.7-.5-.2zm-.1.6.5.1zm0 .7h.5zm.1.4.5-.1zm0 1-.2-.5zm-.3.1.2.5zm-.5.5-.4-.3zm-.5.7.4.3zM32 15l.4-.3zm-.8-1-.4.2zm-.6-.1.4.1zm-.4 1-.5-.3zm-.4.6-.4-.4zm-.5.4.3.4zm-.6.1-.2.5zm-.9-.2.2-.5zm-.8-.2v-.5zm-.9 0v.4zm-.7.2.4.3zm-.4.5-.4-.3zm0 1 .5-.3zm.3.6.4-.2zm.2.6-.4.2zm-.1.8v.5zm-.4 0V19zm-.4.1V19zm-.8.2.1.5zm-.9.3-.1-.5zm-.3 0v-.5zm.2 0 .1.5zm0 0v.5zm-.8 0v-.4zm-.7 0 .1-.4zm-.7-.1.1-.5zm-.7-.2-.2.4zm-.3-.2.2-.5zm-.4-.2-.2.5zm-.5.6-.5-.1zm-.4 1.5.4.1zm-.7.2-.4.4zm-1-1 .4-.3zm-.4.2h.5zm-.1 1.3h-.5zm-.5.4.1-.4zm-1-.2v.4zm-.6 0-.4-.3zm-.5.5.4.3zm-.3.5.5.2zm-.1.3.5.2zm-.1.4-.5-.2zm-.6.3v-.5zm-1.1.1v.5zm-.2.6.4-.3zm.3.5.4-.3zm.4.5-.4.3zm.3.8h-.5zm0 .3h.5zm0 .3h.4zm-.3.5-.4-.2zm-.4.6.5.3zm-.1.6h-.5zm0 .6h.5zm-.3.7-.4-.3zm-.3.4-.4-.4zm-.3.4.3.3zm-.2 0-.5-.2zm0-.3.5.1zm-.2 0 .3.4zm-.7.6L9 31zm-.6.4-.3-.3zm-.3.3.3.4zm-1-.1-.4.2zm-.3-.6.4-.3zm-.4-.6-.4.2zm-.6-.4.2.4zm-.6.3.2.5zm-.7.2v-.5zm-.6-.1v.5zm-.5.5.4.2zm-.2.6.5.1zm-.2.6.5.1zm-.6.2-.3.4zm-1-.7.3-.4zm-.4.3H.8zm.1 1.2H2zm-.2.7v.5zm-.5 0v-.5zm-.2.2-.5.1zm0 .5.6-.1zm.4.2v.5zm.3 0v.5zm.4 0v-.6zm.5.1.4-.3zm.2.2L2 36zm.2.2.4-.3zm.5.5.3-.4zm.2.2-.3.4zm.3.2L3 37zm.5.6-.4.3zm.5.8.4-.3zm.6.2.2.4zm.7-.4.2.5zM7.6 39v.5zm.7 0v-.5zm.6-.5-.4-.3zm.7-.9.4.3zm.6-.3.2-.4zm.6.3-.2.5zm.6 0-.2-.4zm.7-.2-.2-.4zm.6-.3-.3-.4zm.6-.3-.2-.5zm.6-.2v.5zm.3 0V36zm1 .2-.4.4zm.6.6-.3.4zm.6.4-.2.5zm.3.1.2-.5zm.4.1.1-.4zm.6.1-.1-.5zm.6-.1v.5zm.6.2-.3.4zm.7.5.3-.4zm.6-.2.4.3zm.6-.9-.4-.3zm.6-.5.1.5zm.7 0-.1-.6zm.6.2.3-.3zm.6.7-.4.3zm.6.2.2.5zm.7-.2.1.5zm.6-.5-.4-.3zm.6-.8.4.3zm.6.2-.4.3zm.7 1.2.4-.2zm.6.4.3.4zm.3-.2-.3-.4zm.3-.2.3.4zm.6 0 .3-.5zm.3.1.3-.4zm.4.2-.3.4zm.6.2V38zm.3 0v.5zm.3 0V38zm.6-.5-.4-.3zm.7-1.1.4.3zm.6-.1.4-.3zm.6.9-.4.3zm.6.4v-.5zm.7-.1v.4zm.6-.6.4.3zm.6-1 .4.4zm.6.3-.4.2zm.7 1.5.4-.2zm.6.5-.3-.4zm.6-.4.3.4zm.6-.3.2.5zm.7-.3.1.5zm.6-.1v-.5zm.6 0v.5zm.6.3.4-.4zm.7.5.3-.4zm1.8-2-.1.5zm.7.2v-.5zm.6 0v.5zm.6 0V36zm.6.1-.3.4zm.7.5.3-.4zm.6.2v.5zm.6-.1v-.5zm.6 0v-.6zm.3-.1v.5zm.4 0v-.5zm.6.4.4-.3zm.6 1-.4.2zm.6-.2-.4-.3zm1.3-1.7-.2.5zm.6.3.2-.4zm.6.2v.5zm.7 0v-.6zm.6-.2.2.4zm.3-.2-.2-.4zm1-.3v.4zm.6-.2-.2-.5zm.6 0-.3.5zm.6.4.3-.4zm.6.3-.1.5zm.7.2.1-.4zm1.2.2V37zm.6 0V37zm.7 0v.4zm.6 0-.3.5zm.3.2-.2.5zm.3.2.2-.5zm.6.1v-.5zm1.3 0v.4zm.6 0v-.5zm.6-.4.4.3zm.3-.5-.4-.2zm1-.9v-.5zm.6 0v.5zm.6.2-.3.4zm.7.5.3-.3zm.6.7.4-.4zm.3.3.4-.3zm.3.4-.4.3zm.6-.2.4.3zm.3-.5-.4-.2zm.3-.5.4.2zm.6-.4.2-.5zm.3.1.2-.4zm.3.2.3-.4zm.7.3-.1.4zm.4 0v-.5zm.3.1.1-.5zm.6-.2L75 37zm.5-.4.4.3zm.3-.7.5.1zm.2-.8h-.5zm.2-.6-.4-.3zm.3-.5.4.2zm1.3-.4v.5zm.8-.5.4.4zm.3-.2.3.4zm.3-.5.5.2zm.3-.5.4.2zm0-.7-.5.3zm-.5-.7.4-.2zm-.2-.6h.5zm.2-1.1-.4-.3zm.4-.6.4.3zm.3-.6-.5-.1zm0-.3h.5zm.1-.4h-.5zm.2-.7-.5-.1zm.2-.8.5.2zm-.2-.6-.3.5zm-.3-.2.2-.4zm-.4-.2-.2.5zm-.7-.2v-.5zm-.9-.2v.5zm-.5-.3.4-.2zm-.2-.6-.5.2zm-.2-.8h.5zm0-1h.5zm-.4-.5-.2-.5zm-.5.1.1.5zm-.4.2.1.4zm-.9-.8-.4.2zm-.2-.5.5-.2zm-.5-.2.2.4zm-.4.2-.3-.5zm-.4.2-.3-.4zm-.7.3.2.5zm-.4.2-.2-.5zm-.3.1.2.5zm-.6-.1.3-.4zm-.4-.4-.3.4zm-.4-.3.4-.4zm-.1-.1.4-.3zm.2.2-.4.4zm.2.2-.4.4zm-.6-.8-.4.3zm0-.6.4.2zm0-.4.5.2zm.4-1 .5.1zm-.2-1.3.3-.4zm-.6-.5-.4.4zm-.6-.5-.4.2zm-.2-.3.4-.3zm-.5-.9-.4.2zm-.1-.6-.5.2zM68 13l-.3.5zm-.6-.4.3-.4zm-.9-.9.4-.3zm-.1-.6.5.1zm0-.4.6.1zm.2-.4L66 10zm-.2-.6.3-.4zm-.3-.2-.3.4zm-.2-.2.3-.4zm-.6-.3-.2.5zm-.7-.3.2-.4zm-.5-.2.2-.5zm-.6-.3-.2.4zm-.3-.5.4-.2zm-.3-.6-.4.2zm0-.8h-.6zm0-1h.5zm-.5-.4-.2-.4zm-1.1.5.2.5zm-.6-.4h.5zm0-.6h-.4zm-1.4-.4-.2-.5zm-.8.2.3-.5zm-.2-.2-.2.5zM58 4l-.2.4zm-.4-.9h.5zm-.2-1.3-.5.1zm-.6-.1-.3-.3zm-.9 1 .4.3zm-.7 0 .5-.2zm-.2-.5-.4.2zm-.2-.5-.5.2zm-1 .2.4.4zm-.3.3-.3-.3zM53 2l-.5.3zm-.6-1 .4-.3zm-.4-.3.5.2zm-.2.7-.5-.2zm-.4.4-.2-.5zm-.3 0 .1.6h-.3l-.1-.4-.2-.5h.3zm-.3.2.1.5-1-.1.2-.5.2-.4h.3zm-.7 0-.2.4-.3-.2.2-.4.2-.5.3.2zm-.3-.2-.2.4L49 2l.3-.5.2-.4.3.1zm-.3-.2L49 2l-.4-.1v-1q.4 0 .9.2zm-.7-.1v.5h-.3v-1h.3zm-.3 0v.5H48v-1h.3zm-.4 0V2l-.5-.2-.4-.2q.2-.7 1-.7zm-.5.4.5.2-.3.5-.4-.2-.4-.3.2-.4zm-.2.5.4.2-.2.4-.4-.2-.5-.2.3-.5zm-.2.4.4.2q0 .4-.6.5l-.7-.2.3-.4.2-.4h.1-.2q0 .1 0 0zm-.6.1-.3.4-.5-.3.3-.4.3-.4.4.3zm-.5-.3-.3.4-.4-.3.3-.4.3-.4.4.3zm-.4-.3-.3.4h.1l-.4-.3-.5-.2q.1-.4.7-.5.4 0 .7.2zm-.6.1.4.2-.1.4-.5-.2-.4-.2.1-.4zm-.2.4.5.2-.2.4-.5-.2-.4-.3.2-.3zm-.2.4.5.2-.5.7-.4-.3-.4-.4q.2 0 .4-.5zm-.4.6.4.3-.2.3-.4-.4-.4-.3.2-.3zm-.2.2.4.4-.3.2-.3-.3-.4-.4.2-.2zm-.2.3.3.3q-.2.3-.6.3l-.7-.2.2-.4.3-.5h.2l-.1.1zm-.8 0-.2.4-.5-.3.2-.4.3-.5.5.3zm-.5-.3-.2.4-.5-.2.2-.5.2-.4.6.2zm-.5-.3-.2.5q-.4-.3-.5-.1l-.1-.5L41 3q.7-.1 1.2.2zm-.8-.1.1.5H41l-.2-.4-.1-.5.3-.1zm-.4 0 .2.6h-.3l-.2-.4-.1-.5.3-.1zm-.3.2.2.5-.2.1-.5-.2-.4-.2q.2-.5.8-.7zM40 4l.5.2-.2.4-.5-.3-.4-.2.2-.3zm-.2.3.5.3-.2.3-.4-.2-.5-.2.2-.4zm-.1.4.4.2q-.2.5-.7.7l-.2-.5-.2-.4.2-.2zm-.5.4.2.5-.3.1-.2-.4-.2-.5.3-.1zm-.3.2.2.4-.3.2-.2-.5-.2-.4.3-.2zm-.3.1.2.5q-.3 0-.5.3l-.3-.4-.3-.4.7-.4zM38 6l.3.4-.3.2-.3-.4-.3-.4.3-.2zm-.3.2.3.4-.2.2-.4-.4-.3-.4.3-.2zm-.3.2.4.4v.2l-.5.1-.5.2q0-.7.3-1.3zm0 .7h.4l.2.5h-.5l-.5.2-.2-.5zm0 .6.6-.1.1.5-.5.1-.5.2-.1-.6zm.2.5.5-.1q.2.6 0 1.1l-.4-.1-.5-.1v-.6zm0 .9.6.1v.3h-.6l-.5-.2.1-.3zm0 .3.5.1v.3h-.6l-.4-.2v-.3zm0 .3.4.1q0 .5-.5.6l-.7.1v-1h.3v.1zm-.8.3v.5H36v-.5l.1-.5h.7zm-.6 0v.5h-.7V9.2h.7zm-.7 0v.4H35l-.4-.2-.4-.3q.5-.6 1.2-.5zm-.8.2.4.3-.2.2-.4-.2-.4-.3.2-.3zm-.2.3.4.2-.2.3-.4-.3-.4-.2.2-.3zm-.2.2.4.3-.2.5-.5-.1-.5-.2.4-.7zm-.3.7h.5v.4l-.6-.1-.4-.1V11zm0 .3.4.1v.3h-.5l-.5-.2v-.3zm-.1.3.5.1v.5l-.5.1-.5.2v-1zm0 .7h.5v.3l-.4.1-.5.2v-.4zm.1.4.5-.1.1.4-.5.1-.5.2v-.4zm.1.4.5-.1v.5q0 .3-.3.6l-.2-.5-.3-.4h-.1v.2-.1zm0 .5.2.5h-.2L34 14l-.3-.4.2-.1zm-.2.1.2.5H34l-.2-.4-.3-.4.2-.1zm-.2.1.2.5-.3.3-.4-.3-.4-.3.6-.6zm-.5.5.4.3-.3.3-.3-.3-.4-.3.2-.3zm-.2.3.3.3-.2.4-.4-.3-.4-.4.3-.3zm-.3.4.4.3-.4.2h-.5q-.3 0-.6-.4l.4-.3.4-.3h.1q0 .2 0 0l-.1.1h-.1zM32 15l-.4.3-.4-.6.4-.3.4-.3.4.6zm-.4-.6-.4.3-.4-.5.4-.3.4-.3.4.5zm-.4-.5-.4.3-.1-.1h.3l-.4-.2-.5-.2q0-.4.8-.6l.4.2.3.3zm-.6 0 .4.1-.2.5-.4-.2-.5-.1.2-.5zm-.2.4.4.2-.2.5-.4-.2-.5-.2.2-.4zm-.2.5.4.2q-.1.6-.5.9l-.3-.4-.4-.4.3-.5zm-.4.7.3.4-.2.2-.4-.4-.3-.4.2-.2zm-.3.2.4.4-.3.2-.3-.4-.3-.4.2-.2zm-.2.2.3.4q-.5.4-1 .2V16l.2-.5h.1zm-.6.1-.2.5-.4-.1.1-.5.2-.5.4.1zm-.5-.1v.5l-.5-.1.1-.5.2-.5.4.1zm-.4-.1v.5l-.9-.2v-.5l.1-.5 1 .2zm-.8-.2v.5h-.5v-.5l.1-.5h.4zm-.5 0v.5H26l.1-.6v-.5h.5zm-.4 0v.4h-.3l-.4-.2-.4-.4q.4-.4 1.2-.4zm-.7.2.4.3-.2.2-.4-.3-.4-.3.2-.3zm-.2.2.4.3-.3.3-.3-.3-.4-.3.2-.3zm-.2.3.3.3.2.4-.5.2-.5.2-.1-.7q0-.4.2-.7zm0 1 .5-.3.2.7-.4.2-.5.2-.3-.7zm.3.6.4-.2.3.7-.5.1-.4.2-.3-.6zm.2.6.5-.1q.1.3.1.7t-.2.5l-.4.2-.1-.5-.1-.5h-.1v.2l-.1-.3zm-.1.8v.5h-.3v-.4l-.2-.5.4-.1zm-.4 0 .1.6h-.4v-.5l-.2-.5h.4zm-.4.1.1.5-.8.2-.1-.5-.1-.5.8-.2zm-.8.2.1.5-.4.1-.1-.5-.2-.4.5-.2zm-.4.1v.5l-.4.1V20l-.2-.5.4-.1zm-.5.2.1.4-.2.1a.5.5 0 0 0 0-.9h-.2v.4l.1.5h-.3a.5.5 0 0 1 0-1h.4zm-.3 0v-.5h.1l.1.5.1.5h-.2zm.2 0-.1-.5h.2v.5l.2.5h-.2zm.2 0-.1-.5h-.2l-.2.5a1 1 0 0 0 .5.5h-.2V20l-.1-.5h.5a.5.5 0 0 1 0 1H23zm-.2 0v.5h-.3l-.1-.5v-.5h.3zm-.4 0v.5h-.3l-.1-.4v-.5h.3zm-.4 0v.6h-.8V20l.2-.5h.5zm-.7 0-.1.5h-.4l.2-.5v-.5h.4zm-.3 0-.2.5-.3-.1.1-.5.1-.5h.4zm-.4-.1v.5l-.9-.3.2-.4.3-.5.5.2zm-.7-.2-.2.4-.3-.1.2-.5.2-.5.4.2zm-.3-.2-.2.5-.4-.2.2-.5.3-.4.3.1zm-.4-.2-.2.5h.2v.3l-.5-.2-.5-.1q0-.5.4-.7l.4-.3h.5zm-.5.6.5.2-.2.7-.5-.1-.5-.2.2-.7zm-.2.8h.5l-.3.8-.4-.1-.5-.1.2-.8zm-.2.7.4.1-.1.5-.4.3q-.7.1-1-.3l.4-.4.3-.3h.1-.2q0 0 0 .1v-.1zm-.7.2-.4.4-.4-.5.3-.3.4-.4.4.5zm-.5-.4-.3.3-.5-.5.4-.3.3-.4.5.5zm-.4-.5-.4.3h.1q.3-.1.3-.2h-1v-.4q.1-.3.5-.4h.5l.3.3zm-.5.1h.5v.7H16l-.5-.1v-.6zm0 .6h.4v.7h-1v-.7zm-.1.7h.5l-.3.8q-.4.3-.9.1l.2-.5.1-.4h-.1zm-.5.4-.2.5-.4-.1.1-.5.2-.5.4.2zm-.5-.1-.1.5-.5-.2.2-.4.1-.5.5.1zm-.4-.1-.2.4h-.2l-.3-.4-.4-.3q.6-.5 1.2-.2zm-.7 0 .3.4-.2.2-.3-.3-.4-.4.2-.2zm-.2.3.3.3-.2.2-.4-.3-.3-.4.2-.2zm-.3.2.4.3-.2.4-.5-.2-.5-.1.5-.8zm-.3.5.5.2-.1.3-.5-.2-.5-.1.1-.3zm-.1.3.5.2-.1.3-.5-.1-.5-.2.1-.3zm-.1.4.5.1q-.4.7-1 .7l-.1-.5v-.5h.1zm-.6.3v.5H12v-.4l-.1-.5h.5zm-.6 0v.6h-.5v-1h.5zm-.5.1v.5l.1-.1v-.1l-.3.3-.4.3-.2-.4v-.4q.3-.5.7-.6zm-.2.6.4-.3.3.5-.4.3-.4.3-.3-.5zm.3.5.4-.3.4.5-.4.3-.4.3-.4-.5zm.4.5.4-.3.3.6v.6h-.4l-.5-.2-.2-.4zm.3.8h.5v.4L12 27h-.5v-.4zm0 .3h.5v.3H12l-.5-.1V27zm0 .3h.4q0 .5-.3.8l-.4-.3-.4-.2.1-.4zm-.3.5.4.3-.2.3-.4-.3-.4-.3.2-.2zm-.2.3.4.3-.1.3-.5-.3-.4-.3.2-.3zm-.2.3.5.3-.1.2h-1q0-.3.2-.8zm-.1.6h.5v.2h-1v-.2zm0 .3h.5v.2h-1v-.2zm0 .3h.5q0 .5-.4 1l-.4-.3-.4-.3.2-.4zm-.3.7.4.3-.3.4-.4-.3-.4-.4.3-.3zm-.3.4.4.3-.4.4-.3-.3-.4-.4.3-.4zm-.3.4.3.3-.3.3-.2.1a1 1 0 0 1-.6-.3v-.4l.5.1.5.2v-.3a1 1 0 0 0-.6-.3h-.2q0 .2 0 0h.2zm-.3.1-.5-.1V31l.6.1.4.2v.2zm0-.2-.4-.1v-.2l.5.1.5.1v.3zm.1-.2-.5-.1v.2a1 1 0 0 0 .6.3L10 31l-.4-.3.2-.2h.6q.3 0 .3.3v.3zm-.2 0 .3.4-.4.3-.3-.4-.3-.4.3-.2zm-.4.3.3.4-.3.2-.3-.3L9 31l.3-.3zm-.3.3.3.3-.6.5-.3-.4-.3-.3.6-.5zm-.6.4.3.4-.3.3-.3-.4-.3-.4.3-.2zm-.3.3.3.4-.3.2-.3-.4-.3-.4.3-.2zm-.3.2.3.4-.4.2-.4-.1q-.4-.2-.6-.6l.5-.2.4-.3.1.2h-.2zm-.6-.3-.5.2-.3-.6.4-.2.4-.3.4.6zm-.4-.6-.4.2-.4-.6.4-.2.5-.3.3.6zm-.4-.6-.4.2-.1-.2h.1l-.2-.4-.3-.5a1 1 0 0 1 .9 0l.5.6zm-.6-.4.2.4-.3.2-.2-.5-.3-.4.3-.2zm-.3.1.2.5-.3.2-.2-.5-.3-.4.3-.2zm-.3.2.2.5-1 .2.1-.5v-.5l.4-.1zm-.7.2v.5h-.3v-1.1H5zm-.3 0v.4H4v-.5l.1-.5h.4zm-.3-.1v.7l-.5-.2-.5-.1.3-.6q.3-.3.7-.3zm-.5.5.4.2-.1.5h-.5l-.5-.2.2-.6zm-.2.6.5.1-.2.6-.5-.1-.4-.2.1-.5zm-.2.6.5.1q0 .4-.5.7-.6.1-.9-.2l.3-.4.3-.4-.2.1zm-.6.2-.3.4-.5-.4.3-.4.3-.4.5.4zm-.5-.4-.3.4-.5-.3.3-.4.3-.4.5.3zm-.5-.3-.3.4.3-.1.1-.1v-.1.1h-.5l-.5.1V32l.3-.5h.6l.3.2zm-.4.3.5-.1v.6h-.4l-.5.1v-.6zm0 .6H2v.6H1V33zm.1.6H2v.6q0 .2-.2.4l-.4.2v-.5l-.1-.5-.2.1v-.2zm-.2.7v.5H1v-1h.2zm-.2 0v.5H.8v-.5l-.1-.5h.2zm-.3 0v.5H1l.1-.3H.5l-.5.1q0-.3.2-.6l.5-.2zm-.2.2H1v.2H.5l-.5.1v-.2zm0 .2H1v.2H.7L0 35v-.2zm0 .3.6-.1v-.1l-.2-.1v1l-.5-.1-.3-.6zm.4.2v-.5h.3v1H1zm.3 0v-.5h.4v.9h-.3zm.4 0v-.6q.4 0 .9.4l-.4.3-.3.4h-.2zm.5.1.4-.3.2.2-.4.3-.3.4-.2-.2zm.2.2.4-.3.2.2-.4.3-.3.4-.2-.2zm.2.2.4-.3.4.4-.3.4-.3.3-.5-.4zm.5.5.3-.4.3.2-.4.4-.3.4-.2-.3zm.2.2.4-.4.2.3-.3.3-.4.4-.2-.2zm.3.2.3-.3.6.7-.4.2-.4.3L3 37zm.5.6.4-.2.2.3-.4.3-.4.3-.2-.4zm.2.4.4-.3.3.4-.4.3-.4.3-.3-.4zm.3.4.4-.3.2.5.2.4h-.7l-.5-.3zm.6.2-.2-.5.3-.1.2.4.3.5-.4.1zm.3-.2-.2-.4.4-.2.2.4.2.5-.3.2zm.4-.2-.2-.4q.3-.2.6 0 .5 0 .6.3l-.4.3-.3.3H6zm.6.2.4-.3.3.3-.4.3-.4.4-.2-.4zm.3.3.4-.3.3.4-.4.3-.4.3-.3-.3zm.3.4.4-.3.2.1v1q-.6 0-1-.5zm.6.3v-.5H8v1h-.2zm.4 0v-.5h.3v1H8zm.3 0v-.5l.2-.3.4.3.4.3q-.3.5-1 .7zm.6-.5-.4-.3.3-.4.4.3.4.3-.3.4zm.3-.4-.4-.3.3-.5.5.3.4.3-.4.5zm.4-.5-.5-.3.6-.4h.7l-.2.4-.2.5v.1zm.6-.3.2-.4.3.1-.2.5-.2.4-.3-.1zm.3.2.2-.5.3.2-.2.4-.2.5-.3-.2zm.3.1.2-.4h.2l.2.5.2.4q-.5.3-1 0zm.6 0-.2-.4.4-.1.1.5.2.4-.3.1zm.3 0-.1-.5.3-.1.2.4.1.5-.3.1zm.4-.2-.2-.4.5-.3.3.4.2.5-.7.3zm.6-.3-.3-.4.3-.2.3.4.2.5-.3.2zm.3-.2-.3-.4.4-.2.2.5.3.4-.4.2zm.3-.1-.2-.5.8-.2v1l-.3.1zm.6-.2V36h.3v1H14zm.3 0V36h.3v1h-.2zm.4 0V36q.4 0 1 .4l-.4.3-.4.4-.2-.1zm.6.2.3-.3.3.2-.3.4-.3.4-.4-.3zm.3.3.3-.4.3.3-.3.4-.3.4-.3-.3zm.3.3.3-.4.5.3-.2.5-.2.5-.7-.5zm.6.4.2-.5.3.1-.2.5-.1.5-.4-.1zm.3.1.2-.5.3.2-.1.4-.2.5-.3-.1zm.4.1.1-.4h.4v.5l.2.5-1-.1zm.6.1-.1-.5h.3v.4l.2.5h-.3zm.3 0-.1-.5.3-.1.1.5v.5h-.2zm.3-.1v-.5q.5 0 1 .3l-.4.4-.3.4-.2-.1zm.6.2.3-.4.4.2-.4.4-.3.4-.3-.2zm.3.2.4-.4.3.3-.3.4-.4.4-.3-.3zm.4.3.3-.4h-.2l.5.2.4.3q-.2.4-.6.4-.5.1-.8-.1zm.6-.2-.4-.3.3-.4.4.3.4.3-.3.4zm.3-.4-.4-.3.3-.5.4.3.4.3-.3.5zm.3-.5-.4-.3q.3-.5 1-.7v.5l.1.5-.3.3zm.6-.5v-.5h.3v.5l.1.5h-.3zm.3 0v-.5h.3v.4l.1.5h-.3zm.4 0-.1-.6q.7 0 1 .5l-.3.3-.4.3h-.1zm.6.2.3-.3.4.3-.4.3-.4.4-.3-.4zm.3.3.4-.3.3.3-.4.4-.4.3-.3-.3zm.3.4.4-.4v.1l.2.5.2.5q-.7.2-1.2-.4zm.6.2-.1-.5h.3l.1.4.2.5h-.3zm.3-.1-.1-.5h.3l.2.4.1.5h-.3zm.4-.1-.2-.5.4-.3.4.3.4.3-.9.7zm.6-.5-.4-.3.3-.4.4.3.4.3-.3.4zm.3-.4-.4-.3.3-.4.4.3.4.3-.3.4zm.3-.4-.4-.3q.3-.4.9-.3.4.2.6.6l-.5.2-.4.3-.1-.2h.3zm.6.2.5-.2.3.6-.5.2-.4.3-.3-.6zm.3.6.5-.2.3.6-.4.2-.5.3-.3-.6zm.4.6.4-.2.1.1h-.2l.3.5.3.4-.5.1h-.4l-.5-.6zm.6.4-.3-.4.3-.2.3.4.3.4-.3.2zm.3-.2-.3-.4.3-.3.3.5.3.4-.3.2zm.3-.2-.3-.5.6-.2q.3 0 .6.2l-.3.4-.2.4h-.1zm.6 0 .3-.5.3.2-.3.4-.2.4-.3-.2zm.3.1.3-.4.3.1-.2.5-.3.4-.3-.2zm.4.2.2-.5.4.2v1l-.9-.3zm.6.2V38h.3v1h-.3zm.3 0V38h.3v1h-.3zm.3 0V38l.2-.3.4.3.5.2-.5.6-.6.2zm.6-.5-.4-.3.3-.5.4.2.5.3-.3.5zm.3-.6-.4-.2.3-.6.5.3.4.3-.3.5zm.4-.5-.5-.3q.1-.2.7-.5.6 0 .8.4l-.4.3-.4.3h.3-.1zm.6-.1.4-.3.3.4-.4.3-.4.3-.3-.4zm.3.4.4-.3.3.5-.4.3-.4.3-.3-.5zm.3.5.4-.3.2.2v.5l.1.5q-.8 0-1.1-.6zm.6.4v-.5h.3v.4l.1.5H34zm.3 0v-.6h.3v.5l.1.4-.3.1zm.4-.1-.1-.5.3-.3.4.2.4.3q-.3.7-1 .7zm.6-.6-.4-.2.3-.5.4.3.4.2-.3.5zm.3-.4-.4-.3.3-.5.4.3.4.3-.3.4zm.3-.5-.4-.3.3-.3h.6q.3 0 .4.3l.2.3-.5.2-.4.2-.1-.1h.3zm.6.2.5-.2.3.8-.5.2-.4.2-.3-.8zm.3.8.5-.2.3.7-.4.2-.5.2-.3-.7zm.4.7.4-.2.2.3h-.3l.3.4.2.4a1 1 0 0 1-.9 0l-.4-.7zm.6.5-.3-.4.3-.2.3.4.3.4-.4.2zm.3-.2-.3-.4.3-.2.3.4.3.4-.3.2zm.3-.2L38 38l.7-.4.2.5.2.5-.5.2zm.6-.3-.2-.5.3-.1.2.5.2.4-.3.2zm.3-.1-.2-.5.4-.1.2.4.1.5-.3.1zm.4-.2-.2-.4.8-.2v1l-.5.1zm.6-.1v-.5h.3v1h-.3zm.3 0v-.5h.3v1h-.3zm.3 0v-.5q.6 0 1 .4l-.4.4-.3.4q-.2-.2-.3-.2zm.6.3.4-.4.3.3-.4.3-.3.4-.3-.2zm.3.2.4-.3.3.2-.3.4-.4.4-.3-.3zm.4.3.3-.4H42l.1-.1.5.2.4.2q-.2.5-.5.6H42l-.4-.1zm.6-.3-.5-.2.3-.6.5.2.4.2-.3.6zm.3-.6-.5-.2.4-.6.4.2.4.3-.3.5zm.3-.6-.4-.2q0-.3.4-.6l.8-.2-.2.5-.1.5h.1l-.2.3zm.6-.5.2-.5.3.1-.2.5v.5h-.4zm.3.1.2-.5.3.1-.1.5-.2.5-.3-.1zm.4.1v-.5h.5v.5l.2.5h-.9zm.6 0-.1-.5h.3v.5l.2.5h-.3zm.3 0v-.5h.2l.1.4v.5h-.2zm.3 0V36q.5 0 1 .3l-.4.4-.3.4H46zm.6.1.3-.4.4.3-.4.4-.3.4-.3-.3zm.3.3.4-.4.3.2-.3.4-.4.4-.3-.2zm.4.2.3-.4.2.1v.5l.2.5q-.6 0-1-.3zm.6.2-.1-.5h.3v.4l.2.5-.3.1zm.3 0-.1-.5.3-.1.1.5.1.5h-.3zm.3-.1v-.5h.6v.9h-.5zm.6 0v-.6h.3v1H49zm.3-.1v-.5h.3v1h-.2zm.4 0v-.5q.6 0 1 .6l-.4.3-.4.3-.2-.2zm.6.4.4-.3.3.5-.4.3-.4.3-.3-.5zm.3.5.4-.3.3.4-.4.3-.4.3-.3-.4zm.3.4.4-.3h-.3l.5.2.5.2-.3.3q0 .2-.4.3-.6 0-.8-.4zm.6-.1-.4-.3.3-.6.4.3.5.2-.3.6zm.3-.6-.4-.3.3-.6.5.3.4.2-.3.6zm.4-.6-.5-.3.5-.6.4-.1h.4l-.2.5-.2.5h.2l-.2.2zm.6-.5.2-.4.3.1-.2.5-.2.4-.3-.1zm.3.2.2-.5.3.2-.2.4-.2.5-.3-.2zm.3.1.2-.4h.4v1.1l-.8-.2zm.6.2v-.5h.3v.9H54zm.3 0v-.6h.3v1h-.2zm.4 0v-.6l.4-.1.2.5.2.4-.8.2zm.6-.2-.2-.5.3-.1.2.4.2.5-.3.1zm.3-.2-.2-.4.3-.2.2.5.2.4-.3.2zm.3-.1-.2-.5.7-.2.1.5.2.4-.6.2zm.6-.2-.1-.5.3-.1.1.5.2.5h-.3zm.3-.1-.1-.5.3-.1.2.5v.5H57zm.4-.1-.2-.5q.6-.1 1 .1l-.2.5-.3.4h-.2zm.6 0 .2-.4.3.2-.2.5-.3.4-.3-.2zm.3.3.2-.5.4.2-.3.4-.2.5-.4-.2zm.3.1.3-.4.5.3-.2.4-.1.5-.7-.3zm.6.3.2-.4h.3l-.2.5-.1.5-.3-.1zm.3.1.2-.4h.3l-.1.5-.2.5H59zm.4.1.1-.4h.5V38q-.5 0-.8-.2zm.6.2V37h.3v1h-.3zm.3 0V37h.3v1h-.3zm.3 0V37h.6v1h-.6zm.6 0V37h.3v1h-.2zm.3 0V37h.3v.4l.1.5h-.3zm.4 0-.1-.6q.4 0 1 .2l-.3.5-.3.4h-.3zm.6 0 .2-.4.3.2-.2.4-.2.5-.4-.2zm.3.2.2-.4.3.1-.2.5-.2.4-.3-.1zm.3.2.2-.5.4.1v.5l.1.5q-.4 0-1-.2zm.6.1v-.5h.3v.5l.1.5H64zm.3 0v-.5h.3v.4l.1.5h-.3zm.4 0-.1-.6h.7v1h-.6zm.6 0v-.6h.4l-.1.6v.4H65zm.3 0v-.5h.4l-.1.5v.5h-.4zm.3 0v-.5l.2-.2.4.3.4.3q-.3.6-1 .6zm.6-.4-.4-.3.3-.4.4.2.5.3-.4.5zm.3-.5-.4-.2.3-.5.5.3.4.3-.3.4zm.4-.4-.5-.3q.4-.5 1-.7v.5l.1.5-.2.3zm.6-.5v-.5h.3v1h-.3zm.3 0v-.5h.3v1H68zm.3 0v-.5q.5 0 1 .3l-.4.4-.3.4-.3-.1zm.6.2.3-.4.4.3-.4.4-.3.4-.3-.3zm.3.3.4-.4.3.3-.3.3-.4.4-.3-.2zm.4.2.3-.3.7.6-.4.4-.4.3-.6-.6zm.6.7.4-.4.3.4-.4.3-.4.4-.3-.4zm.3.3.4-.3.3.4-.4.3-.4.3-.3-.3zm.3.4.4-.3h-.3v-.1l.5.2.4.3q0 .3-.6.5-.5.1-.8-.3zm.6-.2L71 38l.3-.5.4.2.4.2-.3.6zm.3-.5-.4-.2.3-.6.4.3.4.2-.3.5zm.3-.5-.4-.3q0-.3.4-.5t.8 0l-.2.4-.2.4h.2l-.2.2zm.6-.4.2-.5.3.2-.2.4-.2.5-.3-.2zm.3.1.2-.4.4.2-.3.4-.2.5-.3-.2zm.3.2.3-.4.5.2v.5l-.2.4-.8-.2zm.7.3.1-.5h.4l-.1.5-.1.5h-.4zm.4 0v-.5l.4.1v.5l-.2.5h-.3zm.3.1.1-.5h.1l.4.3.4.4q-.5.4-1 .3zm.6-.2L75 37l.2-.2.4.3.3.4-.2.2zm.3-.2-.4-.3.3-.3.3.4.4.3-.3.3zm.2-.2-.3-.4.1-.4.5.1.5.1q0 .6-.4 1zm.3-.7h-.5l.1-.5.5.1.5.1v.4zm.1-.4h-.5l.1-.5.5.1.5.1-.1.4zm0-.4h-.4q0-.6.3-.9l.4.3.4.2-.1.5zm.3-.6-.4-.3.1-.2.4.2.5.3-.2.2zm.1-.3-.4-.2.2-.3.4.3.4.2-.1.3zm.2-.2-.4-.3q.3-.5.9-.5v1zm.5-.3v-.5h.3v.4l.1.5h-.3zm.4 0v-.6h.3v.5l.1.5h-.4zm.4-.1v-.5l.3-.1.3.3.3.4q-.3.4-.9.4zm.6-.3-.3-.3.2-.2.3.3.4.4-.3.2zm.2-.2-.3-.3.2-.3.4.4.3.4-.2.2zm.3-.2-.4-.4.3-.3.4.2.5.2-.5.7zm.3-.5-.4-.2.1-.3.5.2.4.2-.1.3zm.2-.3-.5-.2.1-.3.5.3.4.2v.2zm0-.2-.4-.3v-.1l.4-.3.4-.2q.3.5.1 1zm0-.7-.4.3-.2-.4.4-.2.4-.3.2.4zm-.2-.3-.4.2-.2-.3.4-.3.4-.2.2.3zm-.2-.4-.4.3-.3-.9h1l.1.4zm-.2-.6h-.5v-.3h1v.3zm0-.3h-.5v-.2h1v.2zm0-.3h-.5q0-.4.3-.8l.4.3.4.3-.1.2zm.2-.5-.4-.3.2-.3.4.3.4.3-.2.3zm.2-.3-.4-.3.2-.3.4.3.4.3-.2.3zm.2-.3-.4-.3.2-.4h.5l.4.2q0 .4-.3.8zm.3-.6-.5-.1v-.4l.5.2h.5v.4zm0-.3-.4-.2V27l.5.1.5.2v.3zm.1-.4h-.5l.2-.8.5.1.5.1-.2.8zm.2-.7-.5-.1.1-.4.5.1.5.1-.1.4zm.1-.4-.5-.1.1-.4.5.1.5.2-.1.3zm.1-.4-.5-.1.3-.5.2-.4.5.5v.7zm-.2-.6-.3.5-.3-.2.3-.5.2-.4.3.2zm-.3-.2-.3.5-.3-.2.2-.5.3-.4.3.2zm-.4-.2-.2.5-.6-.2v-.5l.1-.5q.6 0 1 .3zm-.7-.2-.1.5-.4-.1v-.5l.1-.5h.4zm-.5-.1v.5h-.5l.1-.6v-.5l.5.1zm-.4 0v.4q-.7 0-1-.6l.5-.2.4-.2h.2zm-.5-.4-.5.2-.1-.3.5-.2.4-.2.1.3zm-.1-.3-.5.2-.1-.3.5-.2.4-.2.1.3zm-.1-.3-.5.2-.2-1h1l.1.6zm-.2-.8h-.5V22h1v.5zm0-.6h-.5v-.5h1v.5zm0-.5h-.5.2l-.1-.4-.2-.5q.4 0 .8.2t.3.7zm-.4-.4v.5l-.4.1v-.5l-.2-.4.4-.2zm-.5.1.1.5-.4.1-.1-.4-.2-.5.5-.1zm-.4.2.1.4H75l-.4-.6.4-.2.5-.2v.1zm-.7-.4-.4.2-.2-.4.4-.2.5-.2.2.4zm-.2-.4-.4.2-.2-.5.4-.2.5-.2.2.5zm-.2-.5-.4.2h.1l-.2-.4-.3-.5q.3 0 .8 0 .4.1.5.5zm-.5-.2.2.4-.4.2-.2-.4-.3-.5.4-.2zm-.4.2.2.4-.4.2-.2-.4-.3-.4.4-.3zm-.4.2.2.4-.7.4-.2-.5-.2-.4.6-.3zm-.7.3.2.5-.4.1-.2-.4-.2-.5.4-.1zm-.4.2.2.4-.3.2-.2-.5-.2-.4.3-.2zm-.3.1.2.5q-.7.2-1.2-.3l.4-.3.3-.4h.1zm-.6-.1-.4.3-.3-.3.3-.4.3-.3.4.3zm-.4-.4-.3.4-.4-.3.3-.4.4-.4.3.4zm-.4-.3-.3.4-.2-.2.2.1a.5.5 0 0 0 .5-.8l-.3.4-.4.3-.1-.1v-.5l.5-.3h.2v.1l.3.2zm-.1-.1.4-.3.2.2-.4.3-.4.4-.2-.3zm.2.2.4-.3.2.2-.4.3-.4.4-.2-.2zm.2.2.4-.3H71a.5.5 0 0 0-.6.6zl.3-.3.2.1v.5a1 1 0 0 1-.5.4h-.2v-.1l-.2-.1zm0-.1-.4.3-.3-.3.4-.3.4-.3.2.3zm-.3-.3-.4.3-.3-.4.4-.3.4-.3.3.4zm-.3-.4-.4.3q-.3-.5-.1-1.1l.4.2.5.2v.1zm0-.6-.5-.2.1-.4.5.2.4.2-.1.4zm0-.4-.4-.2.2-.3.4.2.5.2-.2.3zm.2-.3L70 18l.1-.5h.5l.5.1-.2.8zm.2-.7h-.5V17h.6l.5.2v.3zm0-.3h-.4v-.4h.5l.5.1v.4zm.1-.4h-.5v-.2l.2-.4.3-.4q.6.5.5 1.1zm-.3-.6-.3.4-.3-.2.3-.4.3-.4.3.2zm-.3-.2-.3.4-.4-.3.4-.4.3-.4.3.3zm-.3-.3-.4.4-.6-.7.4-.2.4-.3.5.4zm-.6-.5-.4.2-.2-.2.4-.3.4-.3.2.3zm-.2-.3-.4.3-.2-.3.4-.3.4-.3.2.3zm-.2-.3-.4.3-.3-.7.4-.2.5-.1.2.4zm-.3-.6-.4.2-.1-.3.5-.2.4-.1.1.3zm0-.3-.5.2-.1-.3.5-.2.4-.1.1.3zm-.1-.3-.5.2q0-.1-.2-.2l.3-.5.3-.4.5.8zM68 13l-.3.5-.3-.2.3-.5.3-.4.3.2zm-.3-.2-.3.5-.3-.2.3-.5.3-.4.3.2zm-.3-.2-.3.5-.6-.6.4-.3.4-.3.4.3zm-.5-.4-.4.3-.2-.2.4-.3.4-.3.2.2zm-.2-.2-.4.3-.2-.2.4-.4.4-.3.2.3zm-.2-.3-.4.4q-.3-.6-.2-1.1l.5.1.5.1v.2zm-.1-.6-.5-.1.1-.4h.5l.5.2-.1.4zm0-.4-.4-.1V10h.6l.5.2-.1.4zm.2-.4L66 10V10l.3-.4.3-.4.4.5v.6zm-.2-.6-.3.4-.3-.2.3-.4.3-.4.3.2zm-.3-.2-.3.4-.2-.2.3-.4.3-.4.2.2zm-.2-.2-.3.4-.5-.2.2-.5.2-.5.7.4zm-.6-.3-.2.5-.3-.2.2-.4.1-.5.4.1zm-.3-.1-.2.4h-.3l.1-.6.2-.4h.3zm-.4-.2-.1.5q-.4 0-.7-.3l.3-.4.2-.5.5.3zm-.5-.2-.3.4-.3-.1.3-.5.2-.4.3.1zm-.3-.2-.3.5-.2-.2.2-.4.3-.5.2.2zm-.3-.1-.2.4q-.4-.3-.6-.7l.5-.2.4-.2.2.2zm-.3-.5-.5.2-.1-.3.4-.2.5-.2.1.3zm-.2-.3-.4.2-.1-.3.4-.2.5-.2.1.3zm0-.3-.5.2-.2-1h1l.1.6zm-.2-.8h-.5v-.6h1.1v.6zm0-.6h-.4v-.5h1v.6zm0-.5h-.4l.2.2-.2-.5-.2-.4.3-.1h.5q.5.4.4.8zm-.4-.3.2.5-.6.2-.2-.4-.2-.5.6-.2zm-.6.3.2.4-.5.3-.2-.5L61 5l.5-.3zm-.5.2.2.5q-.4.2-1 0l-.2-.5V5h.9v.2V5l-.1-.1H61zm-.6-.4h-.4v-.7h1V5zm0-.6h-.4v-.7h1v.7zm.1-.7h-.5v-.1h.1q.2.2.3.1l-.4-.4-.2-.4.4-.1h.5l.3.5v.4zm-.5-.4.3.5-.5.3-.3-.4-.2-.5.5-.3zm-.5.4.3.4-.5.3-.3-.4-.2-.5.5-.3zm-.5.3.3.4-.6.3h-.7l.2-.5.3-.5.3-.2zm-.8.2-.2.4-.2-.1.2-.5.2-.4.3.1zm-.2-.2-.2.5-.3-.1.2-.5.2-.4h.3zM58 4l-.2.4-.5-.5-.2-.7h.5l.5-.1.1.3zm-.4-.9-.5.1v-.6l.4-.1h.5l.1.6zm0-.6H57v-.6h.4l.5-.1.1.6zm-.2-.7-.5.1h.4V2l-.5-.3-.3-.3.3-.3q.2-.1.5-.1.4 0 .5.3l.1.5zm-.6-.1.4.3-.5.5-.3-.3-.4-.3.5-.5zm-.4.5.3.3-.4.5-.4-.3-.4-.3.5-.5zm-.5.5.4.3q-.2.4-.8.5-.6-.1-.7-.6l.4-.2.5-.2h-.2v-.1zm-.7 0-.4.2-.2-.5.4-.2.5-.2.2.5zm-.2-.5-.4.2-.3-.5.5-.2.5-.2.2.5zm-.2-.5-.5.2h.3l-.4-.3L54 1q.2-.3.8-.2.5.1.6.5zm-.6-.1.4.3-.4.4-.3-.4-.4-.4.4-.3zm-.3.3.3.4-.3.3-.4-.4-.3-.3.3-.4zm-.4.3.4.4q-.3.4-.9.2-.4-.1-.6-.5l.5-.3.4-.2v.1h-.1zM53 2l-.5.3-.3-.6.5-.2.4-.2.3.5zm-.3-.5-.5.2-.2-.5.4-.3.4-.2.3.6zm-.3-.6-.4.3-.1-.2.2.1h.2zl-.5-.2-.5-.1.3-.4q.4-.2.6 0l.3.2.1.3zm-.4-.2.5.2-.1.3-.5-.2-.5-.1.1-.3zm-.1.3.5.2-.1.3-.5-.1-.5-.2.1-.3zm-.1.4.5.1q-.2.6-.8.8l-.1-.5-.2-.5.1-.1zm-.4.4.1.5h-.3l-.1-.4-.2-.5.3-.1z"/></svg>